<svg color="white" aria-hidden="true" focusable="false" data-prefix="fas" data-icon="crown" viewBox="-67 0 512 512" xmlns="http://www.w3.org/2000/svg"><path fill="currentColor" d="m367.746094 215.796875c-5.519532 0-10 4.476563-10 10v266.203125h-337.746094v-35.003906c0-5.523438-4.476562-10-10-10s-10 4.476562-10 10v45.003906c0 5.523438 4.476562 10 10 10h357.746094c5.523437 0 10-4.476562 10-10v-276.203125c0-5.523437-4.476563-10-10-10zm0 0"></path><path fill="currentColor" d="m377.730469 100.453125c-.003907-.109375-.007813-.21875-.015625-.328125-.03125-.429688-.078125-.859375-.160156-1.277344v-.003906c-.085938-.425781-.207032-.839844-.34375-1.246094-.035157-.105468-.070313-.207031-.109376-.308594-.148437-.386718-.308593-.765624-.5-1.128906-.007812-.019531-.015624-.042968-.027343-.0625-.203125-.382812-.441407-.746094-.691407-1.101562-.066406-.089844-.128906-.175782-.195312-.261719-.269531-.351563-.550781-.695313-.867188-1.011719l-90.796874-90.792968c-.316407-.316407-.65625-.601563-1.007813-.867188-.089844-.070312-.175781-.132812-.269531-.199219-.351563-.25-.714844-.488281-1.097656-.691406-.019532-.011719-.042969-.019531-.066407-.03125-.363281-.191406-.738281-.351563-1.125-.496094-.101562-.039062-.203125-.074219-.308593-.109375-.40625-.136718-.820313-.257812-1.246094-.34375h-.003906c-.421876-.082031-.847657-.128906-1.277344-.160156-.109375-.0039062-.21875-.0117188-.328125-.015625-.113281-.0039062-.226563-.015625-.339844-.015625h-266.953125c-5.523438 0-10 4.476562-10 10v366.996094c0 5.523437 4.476562 10 10 10s10-4.476563 10-10v-356.996094h246.953125v80.796875c0 5.519531 4.476563 10 10 10h80.792969v35c0 5.523437 4.480468 10 10 10 5.523437 0 10-4.476563 10-10v-45c0-.117187-.011719-.230469-.015625-.34375zm-90.777344-66.3125 28.324219 28.328125 28.328125 28.328125h-56.652344zm0 0"></path><path fill="currentColor" d="m320.464844 316.003906c0-72.558594-59.03125-131.589844-131.59375-131.589844-72.558594 0-131.589844 59.03125-131.589844 131.589844s59.03125 131.589844 131.589844 131.589844c72.5625 0 131.59375-59.03125 131.59375-131.589844zm-243.179688 0c0-61.53125 50.058594-111.589844 111.589844-111.589844s111.589844 50.058594 111.589844 111.589844-50.058594 111.589844-111.59375 111.589844c-61.527344 0-111.585938-50.058594-111.585938-111.589844zm0 0"></path><path fill="currentColor" d="m253.542969 316.003906c0-3.574218-1.90625-6.875-5-8.660156l-90.308594-52.140625c-3.09375-1.785156-6.90625-1.785156-10 0s-5 5.085937-5 8.660156v104.28125c0 3.570313 1.90625 6.871094 5 8.660157 1.546875.890624 3.273437 1.339843 5 1.339843s3.453125-.449219 5-1.339843l90.308594-52.140626c3.09375-1.785156 5-5.085937 5-8.660156zm-90.308594 34.820313v-69.640625l60.308594 34.820312zm0 0"></path><path fill="currentColor" d="m10 426.996094c5.507812 0 10-4.492188 10-10 0-5.507813-4.492188-10-10-10s-10 4.492187-10 10c0 5.507812 4.492188 10 10 10zm0 0"></path><path fill="currentColor" d="m367.746094 175.796875c-5.507813 0-10 4.492187-10 10s4.492187 10 10 10c5.507812 0 10-4.492187 10-10s-4.492188-10-10-10zm0 0"></path></svg>